<mxfile host="app.diagrams.net" modified="2022-01-13T02:02:06.315Z" agent="5.0 (Windows NT 10.0; Win64; x64) AppleWebKit/537.36 (KHTML, like Gecko) Chrome/97.0.4692.71 Safari/537.36" etag="BUKtBZ-DrQDTL7f5UByf" version="16.2.6" type="github">
  <diagram id="wmlHtsC3Vf9ltHwHsICz" name="Page-1">
    <mxGraphModel dx="2188" dy="1172" grid="1" gridSize="10" guides="1" tooltips="1" connect="1" arrows="1" fold="1" page="1" pageScale="1" pageWidth="827" pageHeight="1169" math="0" shadow="0">
      <root>
        <mxCell id="0" />
        <mxCell id="Oka7rpzOV13HXmcG5KHr-23" value="未命名图层" parent="0" />
        <mxCell id="plYKypvwTfvLCAluZuLY-60" value="设备服务" style="shape=umlLifeline;perimeter=lifelinePerimeter;whiteSpace=wrap;html=1;container=1;collapsible=0;recursiveResize=0;outlineConnect=0;rounded=1;shadow=0;comic=0;labelBackgroundColor=none;strokeWidth=1;fontFamily=Verdana;fontSize=12;align=center;" vertex="1" parent="Oka7rpzOV13HXmcG5KHr-23">
          <mxGeometry x="677" y="218" width="100" height="1950" as="geometry" />
        </mxCell>
        <mxCell id="plYKypvwTfvLCAluZuLY-61" value="" style="html=1;points=[];perimeter=orthogonalPerimeter;rounded=0;shadow=0;comic=0;labelBackgroundColor=none;strokeWidth=1;fontFamily=Verdana;fontSize=12;align=center;" vertex="1" parent="plYKypvwTfvLCAluZuLY-60">
          <mxGeometry x="45" y="1240" width="10" height="50" as="geometry" />
        </mxCell>
        <mxCell id="plYKypvwTfvLCAluZuLY-62" value="" style="html=1;points=[];perimeter=orthogonalPerimeter;" vertex="1" parent="plYKypvwTfvLCAluZuLY-60">
          <mxGeometry x="45" y="743" width="10" height="40" as="geometry" />
        </mxCell>
        <mxCell id="plYKypvwTfvLCAluZuLY-63" value="&lt;span style=&quot;font-size: 12px ; text-align: center ; background-color: rgb(248 , 249 , 250)&quot;&gt;创建装维信息&lt;/span&gt;" style="edgeStyle=orthogonalEdgeStyle;html=1;align=left;spacingLeft=2;endArrow=block;rounded=0;entryX=1;entryY=0;" edge="1" parent="plYKypvwTfvLCAluZuLY-60" target="plYKypvwTfvLCAluZuLY-62">
          <mxGeometry relative="1" as="geometry">
            <mxPoint x="50" y="723" as="sourcePoint" />
            <Array as="points">
              <mxPoint x="80" y="723" />
            </Array>
          </mxGeometry>
        </mxCell>
        <mxCell id="plYKypvwTfvLCAluZuLY-64" value="返回成功" style="html=1;verticalAlign=bottom;endArrow=open;dashed=1;endSize=8;rounded=0;" edge="1" parent="plYKypvwTfvLCAluZuLY-60">
          <mxGeometry relative="1" as="geometry">
            <mxPoint x="57" y="1276" as="sourcePoint" />
            <mxPoint x="485.5" y="1276" as="targetPoint" />
          </mxGeometry>
        </mxCell>
        <mxCell id="plYKypvwTfvLCAluZuLY-65" value="" style="html=1;points=[];perimeter=orthogonalPerimeter;rounded=0;shadow=0;comic=0;labelBackgroundColor=none;strokeWidth=1;fontFamily=Verdana;fontSize=12;align=center;" vertex="1" parent="plYKypvwTfvLCAluZuLY-60">
          <mxGeometry x="45" y="479" width="10" height="50" as="geometry" />
        </mxCell>
        <mxCell id="plYKypvwTfvLCAluZuLY-66" value="" style="html=1;points=[];perimeter=orthogonalPerimeter;" vertex="1" parent="plYKypvwTfvLCAluZuLY-60">
          <mxGeometry x="45" y="589" width="10" height="40" as="geometry" />
        </mxCell>
        <mxCell id="plYKypvwTfvLCAluZuLY-67" value="新增PAAS设备记录&lt;br&gt;" style="edgeStyle=orthogonalEdgeStyle;html=1;align=left;spacingLeft=2;endArrow=block;rounded=0;entryX=1;entryY=0;" edge="1" parent="plYKypvwTfvLCAluZuLY-60" target="plYKypvwTfvLCAluZuLY-66">
          <mxGeometry relative="1" as="geometry">
            <mxPoint x="50" y="569" as="sourcePoint" />
            <Array as="points">
              <mxPoint x="80" y="569" />
            </Array>
          </mxGeometry>
        </mxCell>
        <mxCell id="plYKypvwTfvLCAluZuLY-68" value="返回成功" style="html=1;verticalAlign=bottom;endArrow=open;dashed=1;endSize=8;rounded=0;" edge="1" parent="plYKypvwTfvLCAluZuLY-60" source="plYKypvwTfvLCAluZuLY-80">
          <mxGeometry relative="1" as="geometry">
            <mxPoint x="136" y="690" as="sourcePoint" />
            <mxPoint x="56" y="690" as="targetPoint" />
          </mxGeometry>
        </mxCell>
        <mxCell id="plYKypvwTfvLCAluZuLY-69" value="" style="html=1;verticalAlign=bottom;endArrow=open;dashed=1;endSize=8;rounded=0;" edge="1" parent="plYKypvwTfvLCAluZuLY-60">
          <mxGeometry relative="1" as="geometry">
            <mxPoint x="42" y="775" as="sourcePoint" />
            <mxPoint x="-86" y="775" as="targetPoint" />
          </mxGeometry>
        </mxCell>
        <mxCell id="plYKypvwTfvLCAluZuLY-70" value="" style="html=1;points=[];perimeter=orthogonalPerimeter;" vertex="1" parent="plYKypvwTfvLCAluZuLY-60">
          <mxGeometry x="45" y="821" width="10" height="40" as="geometry" />
        </mxCell>
        <mxCell id="plYKypvwTfvLCAluZuLY-71" value="" style="html=1;points=[];perimeter=orthogonalPerimeter;" vertex="1" parent="plYKypvwTfvLCAluZuLY-60">
          <mxGeometry x="45" y="422" width="10" height="40" as="geometry" />
        </mxCell>
        <mxCell id="plYKypvwTfvLCAluZuLY-72" value="查询设备型号" style="edgeStyle=orthogonalEdgeStyle;html=1;align=left;spacingLeft=2;endArrow=block;rounded=0;entryX=1;entryY=0;" edge="1" parent="plYKypvwTfvLCAluZuLY-60" target="plYKypvwTfvLCAluZuLY-71">
          <mxGeometry relative="1" as="geometry">
            <mxPoint x="50" y="402" as="sourcePoint" />
            <Array as="points">
              <mxPoint x="80" y="402" />
            </Array>
          </mxGeometry>
        </mxCell>
        <mxCell id="plYKypvwTfvLCAluZuLY-73" value="" style="html=1;points=[];perimeter=orthogonalPerimeter;" vertex="1" parent="plYKypvwTfvLCAluZuLY-60">
          <mxGeometry x="45" y="319" width="10" height="40" as="geometry" />
        </mxCell>
        <mxCell id="plYKypvwTfvLCAluZuLY-74" value="" style="html=1;points=[];perimeter=orthogonalPerimeter;" vertex="1" parent="plYKypvwTfvLCAluZuLY-60">
          <mxGeometry x="45" y="927" width="10" height="50" as="geometry" />
        </mxCell>
        <mxCell id="plYKypvwTfvLCAluZuLY-75" value="事件服务" style="shape=umlLifeline;perimeter=lifelinePerimeter;whiteSpace=wrap;html=1;container=1;collapsible=0;recursiveResize=0;outlineConnect=0;rounded=1;shadow=0;comic=0;labelBackgroundColor=none;strokeWidth=1;fontFamily=Verdana;fontSize=12;align=center;" vertex="1" parent="Oka7rpzOV13HXmcG5KHr-23">
          <mxGeometry x="1117" y="218" width="100" height="1950" as="geometry" />
        </mxCell>
        <mxCell id="plYKypvwTfvLCAluZuLY-76" value="" style="html=1;points=[];perimeter=orthogonalPerimeter;rounded=0;shadow=0;comic=0;labelBackgroundColor=none;strokeWidth=1;fontFamily=Verdana;fontSize=12;align=center;" vertex="1" parent="Oka7rpzOV13HXmcG5KHr-23">
          <mxGeometry x="1162" y="1418" width="10" height="90" as="geometry" />
        </mxCell>
        <mxCell id="plYKypvwTfvLCAluZuLY-77" value="平台服务" style="shape=umlLifeline;perimeter=lifelinePerimeter;whiteSpace=wrap;html=1;container=1;collapsible=0;recursiveResize=0;outlineConnect=0;rounded=1;shadow=0;comic=0;labelBackgroundColor=none;strokeWidth=1;fontFamily=Verdana;fontSize=12;align=center;" vertex="1" parent="Oka7rpzOV13HXmcG5KHr-23">
          <mxGeometry x="817" y="218" width="100" height="1950" as="geometry" />
        </mxCell>
        <mxCell id="plYKypvwTfvLCAluZuLY-78" value="" style="html=1;points=[];perimeter=orthogonalPerimeter;rounded=0;shadow=0;comic=0;labelBackgroundColor=none;strokeWidth=1;fontFamily=Verdana;fontSize=12;align=center;" vertex="1" parent="plYKypvwTfvLCAluZuLY-77">
          <mxGeometry x="45" y="483" width="10" height="47" as="geometry" />
        </mxCell>
        <mxCell id="plYKypvwTfvLCAluZuLY-79" value="" style="html=1;verticalAlign=bottom;endArrow=open;dashed=1;endSize=8;labelBackgroundColor=none;fontFamily=Verdana;fontSize=12;edgeStyle=elbowEdgeStyle;elbow=vertical;" edge="1" parent="plYKypvwTfvLCAluZuLY-77">
          <mxGeometry relative="1" as="geometry">
            <mxPoint x="-85" y="518.5" as="targetPoint" />
            <Array as="points">
              <mxPoint x="-10" y="518.5" />
              <mxPoint x="20" y="518.5" />
            </Array>
            <mxPoint x="45" y="518.5" as="sourcePoint" />
          </mxGeometry>
        </mxCell>
        <mxCell id="plYKypvwTfvLCAluZuLY-80" value="门禁服务" style="shape=umlLifeline;perimeter=lifelinePerimeter;whiteSpace=wrap;html=1;container=1;collapsible=0;recursiveResize=0;outlineConnect=0;rounded=1;shadow=0;comic=0;labelBackgroundColor=none;strokeWidth=1;fontFamily=Verdana;fontSize=12;align=center;" vertex="1" parent="Oka7rpzOV13HXmcG5KHr-23">
          <mxGeometry x="977" y="218" width="100" height="1950" as="geometry" />
        </mxCell>
        <mxCell id="plYKypvwTfvLCAluZuLY-81" value="" style="html=1;points=[];perimeter=orthogonalPerimeter;rounded=0;shadow=0;comic=0;labelBackgroundColor=none;strokeWidth=1;fontFamily=Verdana;fontSize=12;align=center;" vertex="1" parent="plYKypvwTfvLCAluZuLY-80">
          <mxGeometry x="45" y="652" width="10" height="51" as="geometry" />
        </mxCell>
        <mxCell id="plYKypvwTfvLCAluZuLY-82" value="推送新增设备" style="html=1;verticalAlign=bottom;endArrow=block;rounded=0;" edge="1" parent="plYKypvwTfvLCAluZuLY-80" target="plYKypvwTfvLCAluZuLY-84">
          <mxGeometry width="80" relative="1" as="geometry">
            <mxPoint x="185" y="899" as="sourcePoint" />
            <mxPoint x="-384" y="895" as="targetPoint" />
          </mxGeometry>
        </mxCell>
        <mxCell id="plYKypvwTfvLCAluZuLY-83" value="创建门禁设备" style="html=1;verticalAlign=bottom;endArrow=block;labelBackgroundColor=none;fontFamily=Verdana;fontSize=12;exitX=1.1;exitY=0.198;exitDx=0;exitDy=0;exitPerimeter=0;" edge="1" parent="Oka7rpzOV13HXmcG5KHr-23">
          <mxGeometry relative="1" as="geometry">
            <mxPoint x="731" y="879.9480000000001" as="sourcePoint" />
            <mxPoint x="1021" y="880" as="targetPoint" />
          </mxGeometry>
        </mxCell>
        <mxCell id="plYKypvwTfvLCAluZuLY-84" value="Saas" style="shape=umlLifeline;perimeter=lifelinePerimeter;whiteSpace=wrap;html=1;container=1;collapsible=0;recursiveResize=0;outlineConnect=0;rounded=1;shadow=0;comic=0;labelBackgroundColor=none;strokeWidth=1;fontFamily=Verdana;fontSize=12;align=center;" vertex="1" parent="Oka7rpzOV13HXmcG5KHr-23">
          <mxGeometry x="536" y="218" width="100" height="1950" as="geometry" />
        </mxCell>
        <mxCell id="plYKypvwTfvLCAluZuLY-85" value="" style="html=1;points=[];perimeter=orthogonalPerimeter;rounded=0;shadow=0;comic=0;labelBackgroundColor=none;strokeWidth=1;fontFamily=Verdana;fontSize=12;align=center;" vertex="1" parent="plYKypvwTfvLCAluZuLY-84">
          <mxGeometry x="45" y="755" width="10" height="40" as="geometry" />
        </mxCell>
        <mxCell id="plYKypvwTfvLCAluZuLY-86" value="绑定设备" style="html=1;verticalAlign=bottom;endArrow=block;entryX=0;entryY=0;labelBackgroundColor=none;fontFamily=Verdana;fontSize=12;edgeStyle=elbowEdgeStyle;elbow=vertical;" edge="1" parent="plYKypvwTfvLCAluZuLY-84">
          <mxGeometry relative="1" as="geometry">
            <mxPoint x="-96.33333333333348" y="335.66666666666674" as="sourcePoint" />
            <mxPoint x="191" y="336" as="targetPoint" />
          </mxGeometry>
        </mxCell>
        <mxCell id="plYKypvwTfvLCAluZuLY-87" value="" style="html=1;points=[];perimeter=orthogonalPerimeter;" vertex="1" parent="plYKypvwTfvLCAluZuLY-84">
          <mxGeometry x="45" y="874" width="10" height="40" as="geometry" />
        </mxCell>
        <mxCell id="plYKypvwTfvLCAluZuLY-88" value="" style="html=1;points=[];perimeter=orthogonalPerimeter;" vertex="1" parent="plYKypvwTfvLCAluZuLY-84">
          <mxGeometry x="46" y="930" width="10" height="70" as="geometry" />
        </mxCell>
        <mxCell id="plYKypvwTfvLCAluZuLY-89" value="查询装维信息" style="html=1;verticalAlign=bottom;endArrow=block;rounded=0;" edge="1" parent="plYKypvwTfvLCAluZuLY-84" target="plYKypvwTfvLCAluZuLY-60">
          <mxGeometry width="80" relative="1" as="geometry">
            <mxPoint x="55" y="940" as="sourcePoint" />
            <mxPoint x="135" y="940" as="targetPoint" />
          </mxGeometry>
        </mxCell>
        <mxCell id="plYKypvwTfvLCAluZuLY-90" value="校验组织" style="html=1;verticalAlign=bottom;endArrow=block;labelBackgroundColor=none;fontFamily=Verdana;fontSize=12;edgeStyle=elbowEdgeStyle;elbow=vertical;" edge="1" parent="Oka7rpzOV13HXmcG5KHr-23">
          <mxGeometry relative="1" as="geometry">
            <mxPoint x="734" y="710" as="sourcePoint" />
            <mxPoint x="861" y="710" as="targetPoint" />
            <Array as="points">
              <mxPoint x="764" y="710" />
            </Array>
          </mxGeometry>
        </mxCell>
        <mxCell id="plYKypvwTfvLCAluZuLY-91" value="推送设备绑定" style="html=1;verticalAlign=bottom;endArrow=block;labelBackgroundColor=none;fontFamily=Verdana;fontSize=12;" edge="1" parent="Oka7rpzOV13HXmcG5KHr-23">
          <mxGeometry x="-0.0058" y="3" relative="1" as="geometry">
            <mxPoint x="733" y="1048" as="sourcePoint" />
            <mxPoint x="1162" y="1048.09" as="targetPoint" />
            <Array as="points">
              <mxPoint x="788" y="1048.09" />
            </Array>
            <mxPoint as="offset" />
          </mxGeometry>
        </mxCell>
        <mxCell id="plYKypvwTfvLCAluZuLY-92" value="" style="html=1;points=[];perimeter=orthogonalPerimeter;" vertex="1" parent="Oka7rpzOV13HXmcG5KHr-23">
          <mxGeometry x="1162" y="1032" width="10" height="100" as="geometry" />
        </mxCell>
        <mxCell id="plYKypvwTfvLCAluZuLY-93" value="ICC" style="shape=umlLifeline;perimeter=lifelinePerimeter;whiteSpace=wrap;html=1;container=1;collapsible=0;recursiveResize=0;outlineConnect=0;rounded=1;shadow=0;comic=0;labelBackgroundColor=none;strokeWidth=1;fontFamily=Verdana;fontSize=12;align=center;" vertex="1" parent="Oka7rpzOV13HXmcG5KHr-23">
          <mxGeometry x="1271" y="218" width="100" height="1950" as="geometry" />
        </mxCell>
        <mxCell id="plYKypvwTfvLCAluZuLY-94" value="更新推送状态" style="edgeStyle=orthogonalEdgeStyle;html=1;align=left;spacingLeft=2;endArrow=block;rounded=0;entryX=1;entryY=0;" edge="1" parent="plYKypvwTfvLCAluZuLY-93">
          <mxGeometry relative="1" as="geometry">
            <mxPoint x="-91" y="812" as="sourcePoint" />
            <Array as="points">
              <mxPoint x="-61" y="812" />
            </Array>
          </mxGeometry>
        </mxCell>
        <mxCell id="plYKypvwTfvLCAluZuLY-95" value="" style="html=1;points=[];perimeter=orthogonalPerimeter;" vertex="1" parent="plYKypvwTfvLCAluZuLY-93">
          <mxGeometry x="46" y="1184" width="10" height="40" as="geometry" />
        </mxCell>
        <mxCell id="plYKypvwTfvLCAluZuLY-96" value="新增设备" style="edgeStyle=orthogonalEdgeStyle;html=1;align=left;spacingLeft=2;endArrow=block;rounded=0;entryX=1;entryY=0;" edge="1" parent="plYKypvwTfvLCAluZuLY-93">
          <mxGeometry relative="1" as="geometry">
            <mxPoint x="50" y="1164" as="sourcePoint" />
            <Array as="points">
              <mxPoint x="80" y="1164" />
            </Array>
            <mxPoint x="55" y="1184" as="targetPoint" />
          </mxGeometry>
        </mxCell>
        <mxCell id="plYKypvwTfvLCAluZuLY-97" value="" style="html=1;points=[];perimeter=orthogonalPerimeter;" vertex="1" parent="plYKypvwTfvLCAluZuLY-93">
          <mxGeometry x="46" y="1092" width="10" height="40" as="geometry" />
        </mxCell>
        <mxCell id="plYKypvwTfvLCAluZuLY-98" value="推送设备新增事件" style="html=1;verticalAlign=bottom;endArrow=block;rounded=0;" edge="1" parent="Oka7rpzOV13HXmcG5KHr-23">
          <mxGeometry width="80" relative="1" as="geometry">
            <mxPoint x="1316" y="1431" as="sourcePoint" />
            <mxPoint x="1173" y="1431" as="targetPoint" />
          </mxGeometry>
        </mxCell>
        <mxCell id="plYKypvwTfvLCAluZuLY-99" value="PAAS设备记录关联ICC设备记录" style="html=1;verticalAlign=bottom;endArrow=block;rounded=0;" edge="1" parent="Oka7rpzOV13HXmcG5KHr-23">
          <mxGeometry width="80" relative="1" as="geometry">
            <mxPoint x="1160" y="1465" as="sourcePoint" />
            <mxPoint x="729.5" y="1465" as="targetPoint" />
          </mxGeometry>
        </mxCell>
        <mxCell id="plYKypvwTfvLCAluZuLY-100" value="装维登录ICC新增设备" style="html=1;verticalAlign=bottom;endArrow=block;rounded=0;" edge="1" parent="Oka7rpzOV13HXmcG5KHr-23">
          <mxGeometry width="80" relative="1" as="geometry">
            <mxPoint x="282" y="1328" as="sourcePoint" />
            <mxPoint x="1316" y="1329" as="targetPoint" />
          </mxGeometry>
        </mxCell>
        <mxCell id="plYKypvwTfvLCAluZuLY-101" value="" style="html=1;points=[];perimeter=orthogonalPerimeter;rounded=0;shadow=0;comic=0;labelBackgroundColor=none;strokeWidth=1;fontFamily=Verdana;fontSize=12;align=center;" vertex="1" parent="Oka7rpzOV13HXmcG5KHr-23">
          <mxGeometry x="722" y="868" width="10" height="50" as="geometry" />
        </mxCell>
        <mxCell id="plYKypvwTfvLCAluZuLY-102" value="装维工具" style="shape=umlLifeline;perimeter=lifelinePerimeter;whiteSpace=wrap;html=1;container=1;collapsible=0;recursiveResize=0;outlineConnect=0;rounded=1;shadow=0;comic=0;labelBackgroundColor=none;strokeWidth=1;fontFamily=Verdana;fontSize=12;align=center;" vertex="1" parent="Oka7rpzOV13HXmcG5KHr-23">
          <mxGeometry x="390" y="218" width="100" height="1950" as="geometry" />
        </mxCell>
        <mxCell id="plYKypvwTfvLCAluZuLY-103" value="" style="html=1;points=[];perimeter=orthogonalPerimeter;rounded=0;shadow=0;comic=0;labelBackgroundColor=none;strokeWidth=1;fontFamily=Verdana;fontSize=12;align=center;" vertex="1" parent="plYKypvwTfvLCAluZuLY-102">
          <mxGeometry x="45" y="315" width="10" height="40" as="geometry" />
        </mxCell>
        <mxCell id="plYKypvwTfvLCAluZuLY-104" value="校验成功" style="text;html=1;align=center;verticalAlign=middle;resizable=0;points=[];autosize=1;strokeColor=none;fillColor=none;" vertex="1" parent="Oka7rpzOV13HXmcG5KHr-23">
          <mxGeometry x="766" y="718" width="60" height="20" as="geometry" />
        </mxCell>
        <mxCell id="plYKypvwTfvLCAluZuLY-105" value="返回设备信息" style="text;html=1;align=center;verticalAlign=middle;resizable=0;points=[];autosize=1;strokeColor=none;fillColor=none;" vertex="1" parent="Oka7rpzOV13HXmcG5KHr-23">
          <mxGeometry x="611" y="974" width="90" height="20" as="geometry" />
        </mxCell>
        <mxCell id="plYKypvwTfvLCAluZuLY-106" value="" style="shape=umlLifeline;participant=umlActor;perimeter=lifelinePerimeter;whiteSpace=wrap;html=1;container=1;collapsible=0;recursiveResize=0;verticalAlign=top;spacingTop=36;outlineConnect=0;size=40;" vertex="1" parent="Oka7rpzOV13HXmcG5KHr-23">
          <mxGeometry x="265" y="218" width="20" height="1950" as="geometry" />
        </mxCell>
        <mxCell id="plYKypvwTfvLCAluZuLY-107" value="" style="html=1;points=[];perimeter=orthogonalPerimeter;rounded=0;shadow=0;comic=0;labelBackgroundColor=none;strokeWidth=1;fontFamily=Verdana;fontSize=12;align=center;" vertex="1" parent="plYKypvwTfvLCAluZuLY-106">
          <mxGeometry x="5" y="306" width="10" height="40" as="geometry" />
        </mxCell>
        <mxCell id="plYKypvwTfvLCAluZuLY-108" value="" style="html=1;points=[];perimeter=orthogonalPerimeter;rounded=0;shadow=0;comic=0;labelBackgroundColor=none;strokeWidth=1;fontFamily=Verdana;fontSize=12;align=center;" vertex="1" parent="plYKypvwTfvLCAluZuLY-106">
          <mxGeometry x="5" y="1092" width="10" height="40" as="geometry" />
        </mxCell>
        <mxCell id="plYKypvwTfvLCAluZuLY-109" value="" style="html=1;points=[];perimeter=orthogonalPerimeter;" vertex="1" parent="plYKypvwTfvLCAluZuLY-106">
          <mxGeometry x="5" y="970" width="10" height="94" as="geometry" />
        </mxCell>
        <mxCell id="plYKypvwTfvLCAluZuLY-110" value="装维人员" style="text;html=1;align=center;verticalAlign=middle;resizable=0;points=[];autosize=1;strokeColor=none;fillColor=none;" vertex="1" parent="Oka7rpzOV13HXmcG5KHr-23">
          <mxGeometry x="246" y="258" width="60" height="20" as="geometry" />
        </mxCell>
        <mxCell id="plYKypvwTfvLCAluZuLY-111" value="登录装维H5" style="html=1;verticalAlign=bottom;endArrow=block;rounded=0;" edge="1" parent="Oka7rpzOV13HXmcG5KHr-23">
          <mxGeometry width="80" relative="1" as="geometry">
            <mxPoint x="281" y="543" as="sourcePoint" />
            <mxPoint x="434" y="543" as="targetPoint" />
          </mxGeometry>
        </mxCell>
        <mxCell id="plYKypvwTfvLCAluZuLY-112" value="大华设备终端" style="shape=umlLifeline;perimeter=lifelinePerimeter;whiteSpace=wrap;html=1;container=1;collapsible=0;recursiveResize=0;outlineConnect=0;rounded=1;shadow=0;comic=0;labelBackgroundColor=none;strokeWidth=1;fontFamily=Verdana;fontSize=12;align=center;" vertex="1" parent="Oka7rpzOV13HXmcG5KHr-23">
          <mxGeometry x="1425" y="217" width="100" height="1951" as="geometry" />
        </mxCell>
        <mxCell id="plYKypvwTfvLCAluZuLY-113" value="更新推送状态" style="edgeStyle=orthogonalEdgeStyle;html=1;align=left;spacingLeft=2;endArrow=block;rounded=0;entryX=1;entryY=0;" edge="1" parent="plYKypvwTfvLCAluZuLY-112">
          <mxGeometry relative="1" as="geometry">
            <mxPoint x="-91" y="812" as="sourcePoint" />
            <Array as="points">
              <mxPoint x="-61" y="812" />
            </Array>
          </mxGeometry>
        </mxCell>
        <mxCell id="plYKypvwTfvLCAluZuLY-114" value="" style="html=1;points=[];perimeter=orthogonalPerimeter;" vertex="1" parent="plYKypvwTfvLCAluZuLY-112">
          <mxGeometry x="46" y="1040" width="10" height="29" as="geometry" />
        </mxCell>
        <mxCell id="plYKypvwTfvLCAluZuLY-115" value="" style="html=1;verticalAlign=bottom;endArrow=open;dashed=1;endSize=8;rounded=0;" edge="1" parent="Oka7rpzOV13HXmcG5KHr-23">
          <mxGeometry relative="1" as="geometry">
            <mxPoint x="1159" y="1071" as="sourcePoint" />
            <mxPoint x="732" y="1072" as="targetPoint" />
          </mxGeometry>
        </mxCell>
        <mxCell id="plYKypvwTfvLCAluZuLY-116" value="返回装维信息" style="html=1;verticalAlign=bottom;endArrow=open;dashed=1;endSize=8;rounded=0;" edge="1" parent="Oka7rpzOV13HXmcG5KHr-23">
          <mxGeometry relative="1" as="geometry">
            <mxPoint x="720" y="1184" as="sourcePoint" />
            <mxPoint x="593" y="1184" as="targetPoint" />
          </mxGeometry>
        </mxCell>
        <mxCell id="plYKypvwTfvLCAluZuLY-117" value="展示装维信息" style="html=1;verticalAlign=bottom;endArrow=block;rounded=0;" edge="1" parent="Oka7rpzOV13HXmcG5KHr-23">
          <mxGeometry width="80" relative="1" as="geometry">
            <mxPoint x="585.5" y="1205" as="sourcePoint" />
            <mxPoint x="274.63043478260875" y="1205" as="targetPoint" />
            <Array as="points">
              <mxPoint x="346" y="1205" />
            </Array>
          </mxGeometry>
        </mxCell>
        <mxCell id="plYKypvwTfvLCAluZuLY-118" value="设备配置、联网激活" style="html=1;verticalAlign=bottom;endArrow=block;rounded=0;" edge="1" parent="Oka7rpzOV13HXmcG5KHr-23" target="plYKypvwTfvLCAluZuLY-112">
          <mxGeometry width="80" relative="1" as="geometry">
            <mxPoint x="282" y="1268" as="sourcePoint" />
            <mxPoint x="362" y="1268" as="targetPoint" />
          </mxGeometry>
        </mxCell>
        <mxCell id="1" parent="0" />
      </root>
    </mxGraphModel>
  </diagram>
</mxfile>
